<?xml version="1.0" encoding="UTF-8"?>
<svg version="1.1" viewBox="0 0 1080 1080" xmlns="http://www.w3.org/2000/svg">
<path d="m501.5 173.92c-5.791 0.562-6.009 0.686-6.271 3.582-0.214 2.374-0.06 2.658 0.738 1.361 0.593-0.964 3.671-2.168 7.472-2.924 3.555-0.706 6.234-1.656 5.954-2.111-0.281-0.454-0.822-0.75-1.202-0.658-0.38 0.093-3.391 0.43-6.691 0.75m9.499 0.71c0 0.479-1.35 16.847-2.999 36.372s-2.999 36.201-2.999 37.059c-1e-3 1.117-2.338 2.149-8.251 3.642l-8.25 2.084 5.781 0.108c4.289 0.079 5.93-0.28 6.357-1.393 0.317-0.825 1.637-1.5 2.934-1.5 3.668 0 4.428-2.871 4.428-16.734 0-8.961 0.379-13.245 1.25-14.114 0.887-0.885 1.345-6.737 1.577-20.142 0.257-14.816 0.634-19.148 1.75-20.074 1.838-1.525 1.809-3.371-0.077-4.936-0.825-0.685-1.5-0.852-1.501-0.372m27.501 3.299c2.606 0.992 25.52 3.386 26.171 2.735 1.365-1.364-4.382-2.443-15.671-2.943-6.875-0.304-11.6-0.211-10.5 0.208m-5.496 2.065c-0.637 1.191-0.953 6.922-0.785 14.25l0.281 12.258 1.3-12.5c0.715-6.875 1.533-13.287 1.818-14.25 0.709-2.4-1.299-2.214-2.614 0.242m39.996 2.115c3.575 0.473 8.863 1.125 11.75 1.448l5.251 0.589-0.564 4.178c-1.082 8.031-1.316 8.528-4.189 8.921-2.228 0.305-2.424 0.525-1.033 1.16 1.134 0.519 2.74 0.053 4.75-1.378 2.734-1.947 3.035-2.693 3.035-7.522 0-8.004-0.894-8.528-14.321-8.38-10.854 0.12-10.99 0.149-4.679 0.984m-118.65 2.886c-3.24 1.308-4.229 3.443-1.251 2.701 1.319-0.329 4.199-0.872 6.399-1.207l4-0.608 11.5 19.091c8.491 14.097 11.59 18.51 11.845 16.867 0.19-1.224-0.26-2.711-1-3.304-1.727-1.386-3.588-4.307-4.957-7.783-0.596-1.512-1.715-2.75-2.486-2.75-0.891 0-1.402-1.093-1.402-3 0-1.65-0.417-3-0.927-3-0.509 0-2.342-2.475-4.073-5.5s-3.564-5.5-4.073-5.5c-0.51 0-0.927-1.302-0.927-2.893 0-1.716-0.644-3.14-1.582-3.5-2.238-0.859-8.523-0.64-11.066 0.386m38.596 3.57c-0.963 1.16-1.458 6.492-1.769 19.024-0.397 16.041-0.575 17.413-2.258 17.413-1.738 0-1.745 0.144-0.143 2.935 0.926 1.615 1.845 2.776 2.04 2.58 0.488-0.487 4.203-42.827 3.794-43.236-0.18-0.18-0.929 0.398-1.664 1.284m119.3 1.845c-1.237 1.306-2.252 3.21-2.254 4.233-2e-3 1.022-0.902 3.332-2 5.133s-1.996 4.34-1.996 5.643-0.675 2.628-1.5 2.945c-0.858 0.329-1.5 1.821-1.5 3.484 0 1.6-0.679 3.473-1.509 4.161-0.83 0.689-1.783 2.967-2.118 5.061-0.335 2.095-1.231 4.047-1.991 4.339s-1.382 1.839-1.382 3.439-0.675 3.469-1.5 4.154-1.5 2.749-1.5 4.587c0 2.319-0.612 3.67-2 4.413-1.284 0.687-2 2.094-2 3.928 0 1.618-0.651 3.108-1.5 3.434-0.921 0.353-1.5 1.871-1.5 3.932 0 4.095 3.442 7.706 7.346 7.706 1.494 0 2.968 0.653 3.274 1.452s2.512 1.745 4.901 2.103c2.39 0.359 4.586 1.28 4.88 2.048 0.295 0.769 1.878 1.397 3.518 1.397 1.674 0 3.368 0.691 3.864 1.576 0.6 1.073 1.971 1.472 4.299 1.25 2.919-0.278 0.911-1.334-13.757-7.229l-17.176-6.902 1.821-4.598c12.984-32.794 24.332-60.746 24.904-61.341 0.393-0.41 8.104 2.218 17.136 5.839 24.685 9.898 28.575 12.165 32.588 18.993 4.555 7.751 2.114 17.994-5.511 23.132-2.989 2.015-3.123 2.28-1.152 2.28 2.931 0 9.065-6.358 9.065-9.396 0-1.297 0.675-2.919 1.5-3.604s1.5-2.485 1.5-4-0.675-3.315-1.5-4-1.5-2.114-1.5-3.176c0-2.313-4.981-8.824-6.75-8.824-0.687 0-1.25-0.42-1.25-0.933s-1.013-1.243-2.25-1.624c-1.237-0.38-3.055-1.535-4.039-2.567s-3.066-1.876-4.628-1.876c-1.561 0-3.398-0.675-4.083-1.5s-2.315-1.5-3.622-1.5c-1.308 0-3.278-0.9-4.378-2s-3.013-2.014-4.25-2.032c-1.237-0.017-3.124-0.692-4.191-1.5-1.068-0.807-3.157-1.468-4.643-1.468s-2.961-0.675-3.278-1.5c-0.85-2.216-3.828-1.793-6.388 0.908m-166.18 2.88c-0.897 2.158-1.423 8.953-1.604 20.712-0.149 9.625-0.081 15.925 0.149 14 1.089-9.093 3.439-37.274 3.134-37.58-0.189-0.189-0.945 1.102-1.679 2.868m103.51 7.327c-0.38 4.188-0.545 7.76-0.367 7.938s7.675 1.117 16.661 2.088l16.336 1.764-0.608 4.437c-0.334 2.441-0.608 5.327-0.608 6.414 0 1.844-0.451 1.929-6.707 1.259-6.157-0.66-6.595-0.584-5.34 0.928 1.035 1.247 2.726 1.576 6.957 1.352 5.37-0.283 5.603-0.411 5.926-3.249 0.185-1.625 0.972-3.862 1.75-4.972 2.998-4.28 0.741-7.538-5.27-7.606-1.549-0.017-3.69-0.692-4.757-1.5-1.419-1.073-4.748-1.468-12.367-1.468h-10.425l0.411-6.462c0.227-3.554 0.713-6.762 1.081-7.131 0.368-0.368 2.216 0.065 4.106 0.962 2.61 1.238 6.169 1.602 14.786 1.51l11.349-0.121-15-1.823c-8.25-1.002-15.5-1.848-16.112-1.879-0.667-0.033-1.388 2.992-1.802 7.559m-139.71-3.958c-1.247 1.506-1.041 1.595 2.273 0.974l3.645-0.682 11.855 19.689c7.605 12.63 11.984 19.026 12.214 17.841 0.197-1.016-0.291-2.327-1.085-2.913-0.793-0.586-1.751-2.304-2.127-3.816-0.377-1.512-1.352-2.75-2.166-2.75-0.918 0-1.481-0.962-1.481-2.531 0-1.393-0.675-2.791-1.5-3.107-0.825-0.317-1.5-1.38-1.5-2.362s-0.633-2.029-1.406-2.325c-0.773-0.297-1.709-1.92-2.079-3.607-0.371-1.688-1.313-3.068-2.094-3.068-0.782 0-1.421-0.845-1.421-1.878 0-1.032-0.675-2.437-1.5-3.122s-1.508-1.752-1.517-2.372c-0.028-1.823-4.594-5.628-6.752-5.628-1.092 0-2.604 0.746-3.359 1.657m-12.378 2.352c-0.804 1.302 0.358 4.991 1.573 4.991 0.513 0 0.933 0.904 0.933 2.01 0 1.105 0.9 2.78 2 3.722s2 2.232 2 2.868c0 0.635 0.675 1.715 1.5 2.4s1.5 2.09 1.5 3.122c0 1.033 0.473 1.878 1.051 1.878s1.709 1.575 2.513 3.5c0.805 1.925 1.907 3.5 2.449 3.5 0.543 0 0.987 0.689 0.987 1.531 0 0.843 0.675 1.791 1.5 2.107 0.825 0.317 1.5 1.637 1.5 2.934 0 1.334 0.868 2.822 2 3.428 1.1 0.589 2 1.969 2 3.067 0 1.097 0.675 2.255 1.5 2.571 0.825 0.317 1.5 1.442 1.5 2.5 0 1.059 0.675 2.184 1.5 2.5 0.825 0.317 1.5 1.432 1.5 2.479 0 1.046 0.9 2.673 2 3.615s2 2.239 2 2.883 0.675 1.43 1.5 1.747c0.825 0.316 1.5 1.684 1.5 3.039 0 1.546 0.711 2.69 1.908 3.07 1.049 0.333 2.16 1.263 2.468 2.067 0.726 1.891 3.039 1.872 4.624-0.038 0.765-0.921 2.959-1.5 5.688-1.5 6.404 0 8.306-1.319 8.344-5.785 0.017-2.043 0.692-4.589 1.5-5.656 1.158-1.532 1.442-5.224 1.345-17.5l-0.122-15.559-1.876 19.5c-1.032 10.725-2.059 19.988-2.283 20.585-0.535 1.429-16.567 4.874-17.541 3.769-1.622-1.839-38.033-61.914-38.096-62.854-0.036-0.55 1.87-1.518 4.237-2.152l4.304-1.152-5.191-0.098c-2.855-0.054-5.472 0.356-5.815 0.911m224.16 15.766c-3.077 7.841-3.193 8.806-1.158 9.587 1.199 0.46 1.5-0.344 1.5-4.002 0-7.203 5.675-11.828 9.643-7.86 0.825 0.825 3.043 1.5 4.928 1.5 2.381 0 3.429 0.458 3.429 1.5 0 0.825 0.868 1.5 1.929 1.5 3.072 0 5.071 2.787 5.071 7.071v3.929h-7.393c-5.649 0-7.529-0.354-7.969-1.5-0.392-1.023-1.937-1.483-4.857-1.448l-4.281 0.053 7 2.895c8.817 3.647 14.338 3.865 17.326 0.686 2.983-3.176 2.825-7.762-0.378-10.966-2.16-2.16-18.724-9.72-21.297-9.72-0.459 0-2.031 3.049-3.493 6.775m-161.66-2.275c0 0.825 0.889 2.389 1.975 3.475s2.251 3.078 2.59 4.427c0.338 1.349 1.25 2.697 2.025 2.994 0.776 0.298 1.41 1.182 1.41 1.966 0 0.783 0.675 1.683 1.5 2 0.825 0.316 1.5 1.699 1.5 3.071 0 1.473 0.82 2.935 2 3.567 1.1 0.589 2 1.674 2 2.413 0 0.738 0.675 1.902 1.5 2.587s1.5 2.09 1.5 3.122c0 1.033 0.675 1.878 1.5 1.878s1.5 0.863 1.5 1.918c0 2.981 1.078 5.082 2.607 5.082 0.766 0 1.393 0.675 1.393 1.5s0.488 1.5 1.083 1.5c0.596 0 0.934-0.391 0.75-0.87-1.003-2.618-25.453-42.09-26.083-42.108-0.413-0.012-0.75 0.653-0.75 1.478m69.548-0.25c-0.214 0.688-0.609 6.65-0.878 13.25-0.335 8.213-0.99 12.947-2.074 15-1.662 3.149-2.008 6.263-0.989 8.918 0.447 1.166 1.829 1.538 5.25 1.414 4.356-0.158 4.411-0.192 0.893-0.56-3.076-0.322-3.748-0.786-3.741-2.582 9e-3 -2.159 2.407-24.17 3.534-32.44 0.377-2.76 0.197-4.25-0.513-4.25-0.601 0-1.268 0.563-1.482 1.25m16.931 16.106c-1.137 10.608-2.039 9.898 15.034 11.833 8.243 0.934 16.112 1.721 17.487 1.748 2.457 0.05 2.449 0.022-0.5-1.633-2.283-1.282-6.288-1.782-16.75-2.09l-13.75-0.406v-6.904-6.904l8.75-0.134c8.032-0.122 8.34-0.197 3.75-0.912-2.75-0.428-6.877-0.818-9.17-0.866l-4.171-0.088-0.68 6.356m-104.07 4.726c-1.992 2.58-2.285 4.7-0.908 6.571 1.235 1.676 1.419 1.694 2.002 0.192 0.353-0.91 0.498-3.123 0.321-4.918-0.254-2.589-0.546-2.97-1.415-1.845m170.2 3.5c-0.334 0.87-0.607 1.679-0.607 1.799s1.638 0.026 3.64-0.208c2.64-0.308 3.89 0.022 4.55 1.201 0.555 0.993 2.205 1.626 4.237 1.626 1.831 0 3.888 0.675 4.573 1.5s2.202 1.514 3.372 1.532c3.102 0.046 7.628 4.418 7.628 7.369 0 1.373-1.12 3.704-2.488 5.181-2.128 2.296-3.065 2.607-6.473 2.15-2.191-0.294-4.704-1.254-5.583-2.133-0.879-0.88-2.544-1.599-3.699-1.599s-2.88-0.707-3.835-1.57c-1.052-0.953-3.05-1.445-5.078-1.25-2.969 0.284-2.251 0.741 6.395 4.07 14.103 5.43 19.538 4.986 21.771-1.78 2.081-6.305-1.564-9.675-17.267-15.963-10.018-4.012-10.315-4.063-11.136-1.925m-3.357 8.757c-2.587 6.713-2.577 6.661-1.25 6.661 0.55 0 1-0.738 1-1.64s0.71-2.159 1.579-2.794c1.048-0.766 1.468-2.316 1.25-4.61-0.326-3.429-0.347-3.41-2.579 2.383m41.75-3.772c0 0.311 1.203 2.144 2.674 4.072 6.04 7.919 3.491 20.836-5.108 25.875-5.023 2.944-13.382 3.349-21.11 1.023-5.487-1.652-6.262-1.485-3.932 0.844 1.296 1.296 3.818 1.619 12.653 1.619 11.762 0 10.804 0.312 18.573-6.055 0.688-0.563 1.25-1.858 1.25-2.877 0-1.02 0.675-2.113 1.5-2.43 1.133-0.435 1.5-2.267 1.5-7.5 0-5.232-0.367-7.065-1.5-7.5-0.825-0.316-1.5-1.699-1.5-3.071 0-1.445-0.815-2.933-1.934-3.532-2.177-1.165-3.066-1.301-3.066-0.468m-67.545 6.9c-0.025 3.551-0.25 6.657-0.5 6.903s-9.905-0.629-21.455-1.943c-25.203-2.869-24.067-2.815-22.616-1.067 0.808 0.973 5.042 1.514 14.873 1.898 9.982 0.391 14.622 0.991 16.954 2.194 2.114 1.09 5.017 1.552 8.5 1.352l5.289-0.304 0.292-7.75c0.161-4.262-0.064-7.748-0.5-7.745s-0.812 2.911-0.837 6.462m129.54 5.049c-4.675 4.683-16.038 15.942-25.25 25.021-11.36 11.196-16.75 17.2-16.75 18.659 0 1.428 4.339 6.463 12.91 14.978 7.1 7.054 13.309 12.826 13.798 12.826 0.488 0 2.442 1.561 4.34 3.468 2.165 2.175 4.438 3.48 6.095 3.5 1.454 0.018 2.902 0.707 3.219 1.532 0.467 1.217 2.823 1.5 12.5 1.5s12.033-0.283 12.5-1.5c0.316-0.825 1.691-1.5 3.055-1.5 2.572 0 7.583-3.876 7.583-5.865 0-0.624 0.45-1.135 1-1.135 1.829 0 9-7.968 9-10 0-1.1 0.9-2.9 2-4 1.743-1.743 2-3.333 2-12.365 0-8.851-0.292-10.737-2-12.908-1.1-1.398-2-3.484-2-4.635 0-1.193-0.645-2.092-1.5-2.092-0.88 0-1.513-0.931-1.532-2.25-0.033-2.374-4.14-7.75-5.92-7.75-0.576 0-1.048-0.427-1.048-0.948 0-1.378-4.53-6.052-5.865-6.052-0.624 0-1.135-0.675-1.135-1.5s-0.675-1.5-1.5-1.5-1.508-0.562-1.517-1.25c-0.021-1.524-4.338-5.75-5.874-5.75-0.61 0-1.109-0.427-1.109-0.948 0-1.747-4.707-6.052-6.615-6.051-1.037 0-5.71 3.832-10.385 8.515m-15.851 18.649-25.351 25.103 11.851 11.978c6.518 6.588 14.493 13.956 17.722 16.374 16.048 12.016 35.205 10.378 48.48-4.147 6.933-7.586 9.425-14.512 8.985-24.973-0.524-12.462-3.22-16.992-20.687-34.75-7.98-8.113-14.765-14.736-15.079-14.719-0.313 0.017-11.978 11.328-25.921 25.134m-372.9-23.503c-0.687 0.278-1.25 1.142-1.25 1.921 0 0.78-0.427 1.417-0.948 1.417-1.787 0-6.221 4.884-5.886 6.484 0.238 1.141 2.043-0.13 6.303-4.442 5.273-5.338 5.828-7.013 1.781-5.38m5.099 8.959c0.344 5.433 0.918 15.167 1.274 21.629 0.357 6.462 0.925 11.764 1.263 11.781 6.633 0.335 48.445 4.967 48.895 5.416 0.344 0.345-2.278 3.506-5.827 7.025l-6.454 6.398-16-1.396c-23.418-2.044-20.901-2.765-20.146 5.776l0.642 7.25 6.025 5.5c3.314 3.025 6.015 5.965 6.002 6.534s-2.494 3.474-5.513 6.456l-5.491 5.423-11.764-11.457c-6.471-6.301-17.95-17.463-25.51-24.805s-13.745-13.658-13.745-14.035c0-0.376 2.463-3.116 5.472-6.089l5.473-5.404 23.555 22.877 0.26-4.5c0.143-2.475-0.128-11.025-0.603-19l-0.863-14.5-0.147 16.729-0.147 16.728-8.022-7.978c-4.411-4.389-8.461-7.979-9-7.979-0.538 0-0.978-0.627-0.978-1.393 0-1.808-2.488-2.738-4.883-1.825-2.832 1.078-11.117 10.731-11.117 12.951 0 1.527 7.089 9.267 8.488 9.267 0.178 0 9.574 9.225 20.879 20.5 21.514 21.456 23.965 23.144 26.865 18.5 0.687-1.1 1.816-2 2.509-2 0.692 0 1.259-0.567 1.259-1.259 0-0.693 0.9-1.822 2-2.509 3.696-2.308 2.553-6.18-3.5-11.858l-5.5-5.16v-6.107-6.107h6.8c3.968 0 7.301 0.501 8.004 1.204 0.697 0.697 5.116 1.375 10.494 1.61l9.289 0.407 6.707-6.773c3.688-3.725 6.699-7.487 6.691-8.36-0.04-4.141-1.281-4.482-17.67-4.856-10.519-0.241-17.078-0.842-19.585-1.797-2.074-0.789-6.002-1.435-8.73-1.435h-4.959l-0.27-20.167c-0.217-16.137-0.548-20.26-1.659-20.63-1.149-0.382-1.28 1.24-0.763 9.418m379.89 25.641c-8.381 8.394-15.238 15.764-15.238 16.379 0 1.909 14.049 14.477 18.384 16.446 11.144 5.061 24.289-0.663 29.862-13.002 2.297-5.086 1.969-11.827-0.841-17.281-1.614-3.132-15.076-17.804-16.336-17.804-0.326 0-7.45 6.868-15.831 15.262m1.512 1.848c-7.562 7.664-13.75 14.552-13.75 15.306 0 0.753 0.675 1.629 1.5 1.946 0.825 0.316 1.5 1.264 1.5 2.107 0 0.842 0.422 1.531 0.938 1.531s2.429 1.367 4.25 3.037c1.822 1.67 4.325 3.294 5.562 3.608 1.237 0.315 2.25 1.198 2.25 1.963 0 2.064 14.278 1.967 16-0.108 0.685-0.825 1.844-1.5 2.577-1.5 1.464 0 6.423-4.585 6.423-5.938 0-0.467 0.675-1.107 1.5-1.424 1.169-0.448 1.5-2.432 1.5-8.984 0-6.255-0.384-8.728-1.5-9.654-0.825-0.685-1.5-1.903-1.5-2.708 0-1.516-11.442-13.359-12.757-13.204-0.408 0.048-6.93 6.358-14.493 14.022m-435.71 32.342c-0.707 0.851-2.069 1.548-3.028 1.548-0.958 0-2.886 0.9-4.285 2-1.398 1.1-2.89 2-3.315 2-1.484 0-9.412 9.293-9.412 11.032 0 0.965-0.675 2.013-1.5 2.33-0.854 0.327-1.48 1.772-1.453 3.357 0.042 2.516 0.289 2.315 2.588-2.105 3.257-6.261 10.613-13.605 16.365-16.337 7.286-3.462 8.072-3.345 9.496 1.407 2.849 9.505 3.022 8.828-3.014 11.781-13.884 6.793-17.82 24.514-7.886 35.509 5.978 6.617 15.15 9.764 23.201 7.959 11.746-2.632 20.404-16.378 17.414-27.646-0.912-3.44-1.014-3.041-1.108 4.356-0.079 6.247-0.452 8.277-1.603 8.719-0.825 0.316-1.501 1.152-1.502 1.857-4e-3 1.911-5.183 7.463-7.656 8.208-1.186 0.357-2.41 1.307-2.718 2.111-0.663 1.727-13.099 2.12-14.133 0.447-0.345-0.558-2.172-1.661-4.059-2.449-1.888-0.789-3.432-1.907-3.432-2.485s-0.675-1.051-1.5-1.051-1.5-0.675-1.5-1.5-0.675-1.5-1.5-1.5c-0.922 0-1.5-0.937-1.5-2.429 0-1.335-0.675-3.103-1.5-3.928s-1.5-2.827-1.5-4.449 0.675-3.509 1.5-4.194 1.5-2.492 1.5-4.015c0-1.541 0.666-3.027 1.5-3.347 0.825-0.316 1.5-1.714 1.5-3.107 0-1.472 0.571-2.531 1.365-2.531 0.751 0 2.509-0.9 3.908-2 1.398-1.1 3.661-2 5.028-2 3.914 0 5.069-5.6 2.044-9.918-0.91-1.299-1.939-3.762-2.287-5.472-0.719-3.54-3.919-4.687-6.018-2.158m507.32 0.048c-0.317 0.825-1.428 1.5-2.469 1.5s-2.793 0.9-3.893 2-2.914 2-4.031 2c-1.118 0-2.291 0.675-2.607 1.5-0.317 0.825-1.373 1.5-2.347 1.5-0.973 0-2.294 0.631-2.934 1.402-0.639 0.771-2.27 1.679-3.622 2.019-1.352 0.339-2.459 1.326-2.459 2.194 0 1.259 1.055 0.981 5.25-1.383 13.828-7.794 22.899-12.417 23.393-11.922 0.919 0.919 25.357 45.772 25.357 46.54 0 0.931-10.744 6.757-11.301 6.127-0.232-0.262-4.133-7.343-8.669-15.735-4.537-8.393-8.681-15.526-9.209-15.853-0.726-0.448-11.469 4.416-13.663 6.186-0.189 0.152 3.074 6.538 7.25 14.191 4.175 7.654 7.592 14.43 7.592 15.058s-2.312 2.314-5.138 3.746c-5.813 2.945-5.135 3.352-10.118-6.07-2.706-5.116-3.229-5.645-3.549-3.59-0.23 1.472 0.243 2.755 1.215 3.299 0.874 0.49 1.59 1.687 1.59 2.661 0 1.949 5.083 8.13 6.686 8.13 0.554 0 2.046-0.9 3.314-2s3.085-2 4.036-2c0.954 0 1.995-1.01 2.319-2.25 0.892-3.41-0.397-9.75-1.983-9.75-0.861 0-1.372-1.129-1.372-3.031 0-1.707-0.625-3.272-1.43-3.581-0.787-0.301-1.926-1.75-2.531-3.218-1.426-3.458-3.516-7.047-4.923-8.454-1.759-1.759-1.336-2.509 1.8-3.198 1.605-0.352 3.176-1.316 3.494-2.143 0.388-1.012 1.639-1.4 3.833-1.189 2.734 0.264 3.309 0.765 3.579 3.123 0.177 1.545 0.965 3.056 1.75 3.357s1.428 1.4 1.428 2.441 0.9 2.793 2 3.893 2 2.914 2 4.031c0 1.118 0.675 2.291 1.5 2.607 0.825 0.317 1.502 1.54 1.505 2.719 2e-3 1.179 1.377 3.608 3.055 5.398 2.473 2.638 3.562 3.137 5.745 2.63 1.482-0.344 3.145-1.139 3.695-1.767s2.237-1.69 3.75-2.359c2.093-0.925 2.75-1.913 2.75-4.131 0-1.668-0.641-3.16-1.5-3.49-0.825-0.316-1.5-1.209-1.5-1.984s-0.675-1.969-1.5-2.654-1.5-2.104-1.5-3.154-0.675-2.168-1.5-2.484c-0.825-0.317-1.5-1.428-1.5-2.469s-0.9-2.793-2-3.893-2-2.81-2-3.8-0.475-2.275-1.055-2.855c-1.268-1.268-4.387-6.79-5.986-10.595-0.635-1.512-1.561-2.75-2.057-2.75s-0.902-0.822-0.902-1.826c0-2.258-4.025-6.174-6.346-6.174-0.944 0-1.976 0.675-2.292 1.5m-31 17c-0.317 0.825-1.637 1.5-2.934 1.5-1.334 0-2.822 0.868-3.428 2-0.632 1.18-2.094 2-3.567 2-1.372 0-2.755 0.675-3.071 1.5-0.317 0.825-1.432 1.5-2.479 1.5s-4.036 1.49-6.643 3.312-5.528 3.608-6.49 3.969c-2.143 0.804-2.301 3.57-0.25 4.357 0.825 0.317 1.5 1.657 1.5 2.979 0 1.321 0.9 3.173 2 4.115s2 2.457 2 3.368c0 0.91 0.675 2.215 1.5 2.9s1.5 1.879 1.5 2.654 0.625 1.648 1.388 1.941 1.652 1.854 1.975 3.469c0.337 1.688 1.227 2.936 2.093 2.936 1.529 0 0.4-2.387-9.557-20.205l-3.746-6.705 14.173-7.723c7.796-4.247 15.524-8.541 17.174-9.541l3-1.819-2.781-3e-3c-1.553-2e-3 -3.036 0.659-3.357 1.496m-435.06 6.913c-0.44 0.778-2.115 1.565-3.723 1.75-1.607 0.185-3.102 0.884-3.321 1.552-0.259 0.787 2.062 0.377 6.594-1.164l6.992-2.378 0.976 3.663 0.975 3.664 0.104-4.25 0.103-4.25h-3.95c-2.36 0-4.273 0.569-4.75 1.413m-67.67 3.837c-1.267 4.731-0.681 24.297 0.788 26.307 1.825 2.496 3.101 1.282 1.601-1.522-1.996-3.729-2.379-15.007-0.725-21.285 1.206-4.574 1.253-5.75 0.228-5.75-0.709 0-1.56 1.012-1.892 2.25m76.162 11.408c-0.889 12.43-8.607 25.833-18.503 32.131-17.075 10.868-39.523 6.334-50.88-10.276-3.167-4.632-3.409-4.792-3.409-2.25 0 1.766 0.532 2.737 1.5 2.737 0.825 0 1.508 0.563 1.517 1.25 0.021 1.524 4.338 5.75 5.874 5.75 0.61 0 1.109 0.675 1.109 1.5s0.567 1.5 1.259 1.5c0.693 0 1.822 0.9 2.509 2s2.322 2 3.633 2c1.312 0 2.644 0.675 2.961 1.5 0.468 1.222 2.876 1.5 12.984 1.5 9.81 0 12.67-0.314 13.654-1.5 0.685-0.825 1.924-1.5 2.754-1.5 2.215 0 8.237-3.859 12.246-7.849 3.255-3.238 5.449-6.523 7.884-11.804 0.546-1.184 1.47-2.448 2.054-2.809s1.062-2.198 1.062-4.083c0-1.884 0.534-5.423 1.187-7.864 0.838-3.135 0.883-5.119 0.152-6.758-0.868-1.945-1.118-1.165-1.547 4.825m425.66-0.771c-3.822 2.069-6.949 4.178-6.949 4.687s3.998 8.268 8.884 17.242c4.935 9.065 8.49 16.673 8 17.117-0.486 0.441-2.987 2.009-5.558 3.484l-4.674 2.684-6.058-10.801c-4.737-8.446-6.062-10.194-6.076-8.019-0.01 1.564 0.639 3.034 1.482 3.357 0.825 0.317 1.5 1.649 1.5 2.961 0 1.311 0.9 2.946 2 3.633s2 2.28 2 3.54 0.631 2.533 1.401 2.829c0.771 0.295 1.629 1.406 1.907 2.468 0.603 2.306 4.49 2.62 5.33 0.431 0.317-0.825 1.347-1.5 2.289-1.5 1.746 0 8.073-5.052 8.073-6.445 0-0.422-1.337-2.455-2.97-4.517-1.634-2.063-3.422-4.94-3.975-6.394s-1.467-2.644-2.03-2.644c-0.564 0-1.025-1.302-1.025-2.893s-0.633-3.136-1.406-3.432c-0.773-0.297-1.709-1.92-2.079-3.607-0.371-1.688-1.313-3.068-2.094-3.068-0.991 0-1.421-1.211-1.421-4 0-2.731 0.437-4 1.378-4 0.757 0 1.937-0.675 2.622-1.5 2.596-3.128 10-0.226 10 3.918 0 2.525 1.18 4.582 2.627 4.582 1.445 0-0.103-3.802-4.477-10.994l-1.752-2.88-6.949 3.761m62.551 26.113c-1.268 1.1-2.687 2-3.153 2s-0.847 0.675-0.847 1.5-0.845 1.5-1.878 1.5c-1.032 0-2.437 0.675-3.122 1.5s-1.699 1.5-2.254 1.5c-0.556 0-2.442 1.518-4.191 3.373-1.75 1.856-4.143 3.679-5.318 4.052-1.174 0.372-3.556 2.004-5.292 3.626s-3.559 2.949-4.051 2.949-0.894 0.675-0.894 1.5-0.808 1.5-1.797 1.5c-1.948 0-4.483 1.74-9.7 6.658-1.843 1.738-4.173 3.422-5.177 3.745-1.004 0.322-3.772 2.316-6.151 4.432-3.709 3.299-4.279 4.322-4 7.179 0.179 1.833 0.917 3.526 1.64 3.764 0.999 0.328 1.155-0.42 0.649-3.118l-0.666-3.551 29.851-22.207c34.105-25.372 32.247-23.902 30.204-23.902-0.851 0-2.585 0.9-3.853 2m7.034-1.399c0.019 0.494 0.851 4.341 1.849 8.549l1.814 7.649-22.251 16.351c-13.572 9.972-21.801 16.637-21.098 17.085 1.995 1.272 3.65 0.831 3.694-0.985 0.045-1.835 6.068-6.25 8.527-6.25 0.787 0 1.431-0.675 1.431-1.5s0.689-1.5 1.531-1.5c0.843 0 1.804-0.709 2.137-1.577 0.333-0.867 1.556-2.011 2.718-2.543 4.397-2.01 6.772-3.697 9.489-6.74 1.542-1.727 3.441-3.14 4.221-3.14 0.779 0 3.554-1.913 6.166-4.25 4.24-3.794 4.749-4.7 4.744-8.447-4e-3 -2.547-0.989-6.046-2.506-8.899-1.375-2.586-2.485-4.297-2.466-3.803m-530.6 21.111c-1.14 1.139-3.826 1.846-8.044 2.114-3.733 0.238-6.805 0.972-7.482 1.789-1.507 1.815-1.515 1.816 13.595-1.53 7.15-1.584 13.19-2.698 13.422-2.477 0.232 0.222-0.218 3.888-1 8.147l-1.422 7.745-5.5 1.261c-12.626 2.896-10.938 0.791-14.64 18.256-1.805 8.516-3.299 15.79-3.321 16.165-0.021 0.375 3.009 2.85 6.735 5.5l6.774 4.818-1.447 7.75c-0.796 4.262-1.857 7.75-2.359 7.75-0.501 0-14.968-10.155-32.148-22.566l-31.236-22.566 1.514-7.948c1.497-7.854 1.557-7.958 5.072-8.851 1.956-0.497 12.781-2.926 24.056-5.398 18.324-4.017 19.86-4.503 14.473-4.582-3.584-0.053-6.828 0.462-8 1.27-1.085 0.747-5.032 1.597-8.771 1.888-4.211 0.329-7.476 1.144-8.579 2.142-1.23 1.113-3.677 1.611-7.917 1.611-5.455 0-6.474 0.33-9.172 2.966-2.66 2.601-3.055 3.71-3.201 9-0.091 3.319-0.204 6.772-0.25 7.675s0.798 2.14 1.876 2.75c1.077 0.61 3.09 2.347 4.472 3.859 1.383 1.512 2.882 2.75 3.332 2.75 1.145 0 7.07 4.239 8.037 5.75 0.44 0.688 1.452 1.25 2.25 1.25 0.797 0 1.45 0.444 1.45 0.987 0 0.542 1.575 1.644 3.5 2.449 1.925 0.804 3.5 1.935 3.5 2.513s0.675 1.051 1.5 1.051 1.5 0.675 1.5 1.5 0.689 1.5 1.531 1.5c0.843 0 1.775 0.634 2.073 1.41 0.297 0.775 1.664 1.692 3.038 2.036 1.373 0.345 3.751 1.91 5.283 3.477 1.532 1.568 3.648 3.124 4.702 3.459 1.054 0.334 3.397 1.96 5.206 3.613 1.81 1.653 3.665 3.005 4.122 3.005s1.067 0.615 1.356 1.368c0.574 1.497 5.285 2.724 7.376 1.922 0.83-0.319 1.313-2.258 1.313-5.275 0-3.02 0.55-5.227 1.5-6.015 0.825-0.685 1.5-2.231 1.5-3.435 0-2.367-4.769-7.565-6.94-7.565-0.732 0-2.395-1.148-3.695-2.552-1.938-2.091-2.365-3.63-2.365-8.531 0-4.393 0.398-6.133 1.5-6.555 0.965-0.371 1.5-1.916 1.5-4.329 0-2.065 0.286-5.842 0.636-8.393 0.576-4.204 0.887-4.64 3.309-4.64 1.47 0 3.546-0.661 4.614-1.468 1.067-0.808 3.317-1.483 5-1.5 5.278-0.055 6.626-1.892 7.423-10.115 0.431-4.452 0.33-7.917-0.254-8.667-1.488-1.912-10.252-1.584-12.297 0.462m-36.983 24.753c-6.079 1.23-11.576 2.416-12.217 2.636-0.64 0.219 4.334 4.133 11.053 8.697l12.216 8.297 1.666-7.07c0.916-3.888 1.968-8.86 2.338-11.047 0.812-4.805 1.085-4.778-15.056-1.513m0.763 2.073c-0.753 0.853-3.252 1.51-6 1.578-2.591 0.064-3.865 0.333-2.831 0.598 1.034 0.266 3.156 1.788 4.716 3.384s3.527 2.902 4.37 2.902c0.844 0 2.434 0.9 3.534 2s2.417 2 2.927 2c0.509 0 1.132 0.788 1.384 1.75 0.295 1.128 0.498 0.816 0.573-0.878 0.064-1.445 0.791-3.187 1.616-3.872 0.958-0.795 1.5-3.007 1.5-6.122v-4.878l-5.25 0.038c-3.31 0.024-5.726 0.578-6.539 1.5m556.07 6.919c13.079 2.347 24.022 4.51 24.317 4.806 0.656 0.655 3.319 11.605 3.368 13.849 0.032 1.43-1.798 1.289-16.214-1.248-19.081-3.358-18.329-3.3-16.297-1.268 1.089 1.089 4.211 1.771 9.822 2.146 4.524 0.303 8.546 1.047 8.938 1.654 0.405 0.627 3.647 1.104 7.5 1.104h6.787l0.295-6.134c0.216-4.502-0.117-6.545-1.25-7.678-0.85-0.85-1.545-2.204-1.545-3.01 0-1.969-2.159-2.672-8.332-2.71-2.949-0.018-6.001-0.662-7.109-1.5-1.289-0.974-4.357-1.468-9.128-1.468-5.168 0-7.536-0.421-8.431-1.5-0.922-1.111-3.224-1.476-8.872-1.406-7.173 0.089-6.209 0.349 16.151 4.363m-50.961 2.524c0.163 4.023 0.489 4.585 3.182 5.487 1.65 0.554 3.321 1.462 3.713 2.019s4.892 1.171 10 1.365c6.615 0.25 9.517 0.753 10.087 1.75 0.59 1.032 2.948 1.374 9 1.306 8.188-0.092 8.17-0.098-12.557-3.841-11.417-2.062-20.92-3.933-21.118-4.158s-0.839-2.209-1.425-4.409l-1.065-4 0.183 4.481m7.882 31.219c-0.697 0.697-1.123 3.525-1.015 6.75l0.185 5.55 0.367-5.25 0.368-5.25 8.395-0.078-3.365-1.461c-4.024-1.747-3.478-1.718-4.935-0.261m-546.12 2.7c-2.433 0.33-4.6 1.139-4.816 1.797-0.292 0.889 1.39 1.048 6.524 0.618l6.918-0.58 0.53 11.181c0.292 6.15 0.751 11.403 1.022 11.673 0.27 0.27 6.96 0.089 14.867-0.403l14.377-0.894-28.5-0.292v-10.429c0-8.147-0.344-10.772-1.571-12-1.633-1.632-2.046-1.662-9.351-0.671m585.92 0.616c17.325 0.648 31.612 1.247 31.75 1.331s0.326 2.066 0.418 4.403l0.168 4.25 0.39-3.708c0.214-2.039-0.102-4.626-0.703-5.75-1.068-1.995-1.814-2.038-32.308-1.874l-31.215 0.168 31.5 1.18m-590.78 28.984c-0.046 15.673 0.315 23.15 1.254 26l1.318 4 0.011-5.5c6e-3 -3.025-0.558-14.725-1.253-26l-1.265-20.5-0.065 22m622.01-5.5c-0.129 6.875-0.515 17-0.857 22.5-0.468 7.506-0.337 9.733 0.525 8.93 0.814-0.759 1.064-7.316 0.857-22.5-0.176-12.977-0.383-16.499-0.525-8.93m-58.557-7.333c-0.367 0.366-0.67 6.104-0.674 12.75s-0.294 15.121-0.645 18.833l-0.637 6.75h-6.447-6.446l0.604-17.75c0.464-13.63 0.341-17.17-0.529-15.25-1.544 3.405-3.007 29.919-1.778 32.216 0.629 1.175 2.116 1.784 4.355 1.784 1.87 0 4.504 0.42 5.854 0.933 2.017 0.767 2.867 0.492 4.78-1.544 2.659-2.83 3.73-10.277 3.834-26.639l0.062-9.75h7c6.859 0 9.212-1.174 4.75-2.37-3.051-0.817-13.256-0.791-14.083 0.037m29.396 9.541c0.071 10.368 1.742 9.38 2.19-1.294l0.247-5.897 5.75-9e-3 5.75-8e-3v17.943c0 17.409 0.066 17.99 2.223 19.5 2.385 1.671 6.48 2.021 9.445 0.807 1.221-0.5-0.17-0.917-4.168-1.25l-6-0.5v-19-19l-15.5-0.584 0.063 9.292m-530.56-6.246c-3.85 0.353-7.9 1.185-9 1.848-1.626 0.98 0.057 1.157 9 0.948l11-0.258 0.297 7.412c0.211 5.254-0.081 7.651-1 8.235-0.908 0.576-0.643 0.827 0.886 0.838 2.92 0.02 3.622-2.625 2.78-10.485-0.947-8.848-2.207-9.618-13.963-8.538m515.81 3.668c-0.344 0.897-0.668 7.534-0.719 14.75l-0.093 13.12h7.5 7.5l0.198-14-0.599 6.505c-0.399 4.329-1.017 6.462-1.849 6.375-0.687-0.071-3.439-0.186-6.114-0.255l-4.863-0.125 0.503-14c0.469-13.024 0.072-16.373-1.464-12.37m-542.31 16.882c-10.725 0.665-19.666 1.272-19.87 1.349-0.203 0.076-0.046 5.314 0.349 11.639l0.718 11.5h-6.515c-6.197 0-6.564-0.134-7.52-2.75-0.552-1.513-1.04-2.049-1.083-1.191-0.196 3.865 2.176 5.055 9.445 4.742l6.976-0.301 0.562-23.342 23.921-0.329c17.429-0.24 24.259-0.668 25.169-1.579 1.529-1.531-3.95-1.486-32.152 0.262m17.405 20.876c-0.293 0.763-1.854 1.652-3.469 1.975-1.708 0.341-2.936 1.225-2.936 2.112 0 0.839-0.675 1.525-1.5 1.525s-1.5 0.575-1.5 1.278-0.9 2.048-2 2.99c-1.866 1.597-2 2.95-2 20.143v18.43l-3.051 0.67c-2.502 0.55-3.492 0.195-5.5-1.972-1.347-1.453-2.449-3.014-2.449-3.468s-0.675-1.386-1.5-2.071c-1.156-0.959-1.5-3.61-1.5-11.55 0-9.998-0.08-10.368-2.693-12.423-2.097-1.65-3.811-2.053-7.75-1.823l-5.057 0.296-0.153 4.5c-0.141 4.128-0.1 4.21 0.5 1l0.653-3.5 6 0.35c3.3 0.193 6.213 0.555 6.472 0.806 0.26 0.251 0.333 3.812 0.162 7.913-0.561 13.425 4.22 23.431 11.196 23.431 5.699 0 6.166-1.425 6.203-18.907 0.037-17.627 0.921-21.528 5.862-25.867 9.779-8.586 23.951-5.634 31.714 6.606 5.98 9.43 7.294 14.5 7.345 28.333 0.025 6.966-0.271 12.983-0.659 13.372-0.387 0.388-3.663 0.389-7.279 2e-3l-6.576-0.705 0.78-3.667c2.407-11.319-0.414-26.049-5.867-30.637-3.755-3.16-5.3-3.174-8.398-0.075-2.399 2.398-2.455 2.814-2.455 18.222 0 14.684 0.109 15.612 1.587 13.503 1.619-2.312 1.618-2.405-0.188-20.43-0.359-3.583-0.196-5.75 0.433-5.75 0.555 0 1.306-1.35 1.668-3 0.9-4.097 3.355-3.853 7.551 0.75l3.419 3.75 0.358 14.212c0.402 15.963-0.111 15.058 8.742 15.421 5.444 0.223 7.43-0.467 7.43-2.585 0-0.734 0.675-1.593 1.5-1.91 2.121-0.813 2.147-17.401 0.032-20.197-0.808-1.067-1.483-3.85-1.5-6.183-0.024-3.136-0.553-4.567-2.032-5.49-1.1-0.687-2-2.266-2-3.508 0-2.703-9.343-12.624-14.483-15.379-4.293-2.301-14.293-2.627-15.112-0.493m491.2 0.77c-0.881 1.258-1.602 4.19-1.602 6.515 0 2.523-0.552 4.55-1.37 5.027-0.801 0.468-1.558 3.141-1.823 6.445-0.277 3.439-1.109 6.3-2.131 7.321-0.947 0.948-1.676 3.242-1.676 5.277 0 1.98-0.702 4.375-1.559 5.322-1.071 1.183-1.462 3.225-1.25 6.517 0.275 4.261 1.06 2.09 7.07-19.55 3.719-13.388 6.578-24.527 6.352-24.752-0.225-0.225-1.13 0.62-2.011 1.878m17.398 1.805c7.425 2.104 22.439 6.325 33.365 9.38 10.926 3.054 20.112 5.801 20.414 6.103 0.303 0.302-0.217 3.308-1.154 6.679-1.745 6.276-1.541 8.19 0.642 6.009 0.732-0.732 1.233-3.955 1.233-7.934v-6.7l-3-0.334c-1.65-0.183-3.783-1.036-4.74-1.895-0.957-0.86-4.107-1.783-7-2.053-2.923-0.272-5.615-1.096-6.06-1.854-0.48-0.819-2.529-1.364-5.127-1.364-2.627 0-4.817-0.589-5.573-1.5-0.737-0.887-2.93-1.503-5.372-1.507-2.436-3e-3 -5.358-0.821-7.128-1.993-1.785-1.182-4.692-1.989-7.179-1.993-2.373-4e-3 -4.826-0.655-5.678-1.507-0.943-0.943-3.291-1.475-6.322-1.432-4.342 0.062-3.479 0.449 8.679 3.895m-10.873 31.915c-2.397 8.733-4.693 16.419-5.101 17.081-0.57 0.921-1.987 0.833-6.066-0.378-6.244-1.854-6.96-1.914-6.96-0.581 0 0.55 1.527 1 3.393 1 2.094 0 3.613 0.574 3.969 1.5 0.69 1.799 5.736 2.002 7.438 0.3 0.66-0.66 1.2-2.82 1.2-4.8s0.513-4.113 1.14-4.74 1.509-3.474 1.96-6.327 1.513-5.953 2.36-6.889 1.54-3.354 1.54-5.373v-3.671h5.393c3.871 0 5.555 0.423 5.969 1.5 0.385 1.004 1.965 1.5 4.778 1.5 2.498 0 4.94 0.668 6.021 1.646 1 0.905 4.065 1.861 6.811 2.125 2.745 0.264 5.505 1.098 6.132 1.854 0.675 0.814 3.082 1.375 5.896 1.375 3.007 0 5.213 0.552 6 1.5 1.433 1.726 10 2.104 10 0.441 0-0.582-0.399-0.813-0.886-0.512s-12.887-2.822-27.556-6.941c-14.669-4.118-27.211-7.488-27.872-7.488-0.702 0-3.014 6.603-5.559 15.878m-540.98 3.403c-0.115 5.205 0.199 6.916 1.35 7.357 0.927 0.356 1.5 1.877 1.5 3.979 0 2.165 0.727 4.025 2 5.115 1.1 0.942 2 2.287 2 2.99s0.675 1.278 1.5 1.278 1.5 0.675 1.5 1.5 0.675 1.5 1.5 1.5 1.5 0.645 1.5 1.433 0.858 1.705 1.908 2.038c1.049 0.333 2.16 1.263 2.468 2.067 0.825 2.149 17.436 2.115 18.262-0.038 0.317-0.825 1.542-1.5 2.722-1.5 3.328 0 7.647-5.207 7.6-9.16l-0.04-3.34-1.582 3c-3.877 7.354-9.042 10.5-17.241 10.5-6.493 0-9.762-1.316-14.433-5.81-5.733-5.514-10.597-16.363-11.966-26.69-0.219-1.65-0.466 0.052-0.548 3.781m532.35 20.719c-1.399 0.601-0.048 0.876 4.5 0.914 4.545 0.039 6.049-0.236 5-0.914-1.819-1.175-6.765-1.175-9.5 0m-12.138 2.5c-0.317 0.825-1.217 1.5-2 1.5-0.784 0-1.673 0.648-1.977 1.439s-1.864 1.727-3.469 2.079c-1.604 0.353-2.916 1.172-2.916 1.821s-0.9 1.742-2 2.429-2 2.159-2 3.272c0 1.112-0.675 2.282-1.5 2.598-0.825 0.317-1.5 1.041-1.5 1.609s-0.685 1.534-1.523 2.146c-0.837 0.612-1.806 2.912-2.152 5.11-0.345 2.198-1.235 4.357-1.977 4.797-2.016 1.196-1.888 19.017 0.152 21.057 0.825 0.825 1.5 2.567 1.5 3.872 0 1.304 0.54 2.911 1.2 3.571 2.433 2.433 2.631 1.075 0.518-3.55-1.735-3.8-2.172-6.65-2.183-14.25-0.013-8.272 0.339-10.257 2.719-15.358 5.569-11.932 13.294-19.701 23.598-23.731l4.648-1.817-4.281-0.047c-2.916-0.032-4.465 0.431-4.857 1.453m29.73 0.39c9.802 3.835 17.853 11.326 21.499 20.002 7.871 18.731-2.134 43.312-21.33 52.405-5.958 2.822-7.771 3.203-15.261 3.203-7.494 0-9.302-0.38-15.275-3.209-4.171-1.976-8.688-5.173-11.75-8.317-4.681-4.806-4.975-4.956-4.975-2.541 0 1.615 0.556 2.567 1.5 2.567 0.825 0 1.5 0.689 1.5 1.531 0 0.843 0.788 1.821 1.75 2.175s2.11 1.24 2.55 1.969 1.677 1.325 2.75 1.325c1.072 0 2.85 0.9 3.95 2s2.788 2.014 3.75 2.032c0.962 0.017 2.624 0.692 3.691 1.5 2.806 2.122 20.381 2.096 21.197-0.032 0.317-0.825 1.657-1.5 2.979-1.5 1.321 0 3.173-0.9 4.115-2s2.737-2 3.99-2 2.278-0.43 2.278-0.955 1.145-2.1 2.545-3.5 2.975-2.545 3.5-2.545 0.955-0.627 0.955-1.393 0.633-1.636 1.406-1.932c0.773-0.297 1.7-1.883 2.061-3.524 0.36-1.641 1.303-3.232 2.094-3.536 0.798-0.306 1.439-1.855 1.439-3.477 0-1.677 0.64-3.17 1.5-3.5 1.214-0.465 1.5-2.782 1.5-12.138s-0.286-11.673-1.5-12.138c-0.849-0.326-1.5-1.816-1.5-3.434 0-1.834-0.716-3.241-2-3.928-1.1-0.589-2-1.677-2-2.419 0-0.741-1.913-2.995-4.25-5.007s-4.963-4.314-5.834-5.116-2.053-1.458-2.627-1.458-1.604-0.675-2.289-1.5c-0.705-0.85-2.817-1.48-4.872-1.453l-3.628 0.047 4.592 1.796m-464.82 13.11c-0.942 1.1-2.287 2-2.99 2s-1.278 0.703-1.278 1.562c0 1.169 1.133 0.749 4.5-1.669 2.475-1.778 4.5-3.381 4.5-3.563 0-1.159-3.31 9e-3 -4.732 1.67m19.023 14.694c8.578 11.736 12.311 16.137 12.565 14.816 0.199-1.033-0.362-2.407-1.247-3.054s-1.609-1.524-1.609-1.948c0-0.425-1.575-2.257-3.5-4.073-1.925-1.815-3.5-4.122-3.5-5.125s-1.575-3.269-3.5-5.036-3.5-3.628-3.5-4.136-0.675-1.183-1.5-1.5c-0.825-0.316-1.5-1.399-1.5-2.407 0-2.113-1.83-4.231-3.656-4.231-0.691 0 4.236 7.512 10.947 16.694m421.56-11.678c-13.342 7.049-16.912 24.94-7.049 35.323 9.445 9.944 23.182 11.187 32.326 2.925 10.482-9.47 11.015-24.172 1.213-33.455-3.431-3.249-10.904-6.769-14.342-6.755-2.413 9e-3 -2.433 0.061-0.559 1.478 1.068 0.807 3.255 1.468 4.861 1.468 2.226 0 4.319 1.395 8.809 5.871l5.889 5.871v8.06c0 6.646-0.395 8.678-2.25 11.586-1.237 1.94-2.812 3.546-3.5 3.57-0.687 0.023-1.25 0.717-1.25 1.542 0 0.913-0.931 1.5-2.378 1.5-1.307 0-2.937 0.675-3.622 1.5-1.763 2.124-10.692 1.951-15.092-0.292-5.558-2.833-9.908-6.223-9.908-7.719 0-0.757-0.959-2.048-2.132-2.869-1.944-1.361-2.091-2.185-1.671-9.307l0.461-7.813 5.542-5.75c3.771-3.912 6.321-5.75 7.98-5.75 1.341 0 3.311-0.661 4.379-1.468 1.845-1.396 1.793-1.468-1.059-1.456-1.65 7e-3 -4.641 0.88-6.648 1.94m-444.85 4.595c0 1.07 0.788 2.688 1.75 3.596 2.857 2.697 4.223 4.591 5.24 7.267 0.528 1.389 1.422 2.526 1.985 2.526 0.564 0 1.025 0.675 1.025 1.5s0.576 1.5 1.281 1.5c0.704 0 1.813 1.237 2.463 2.75 1.457 3.386 3.444 6.526 4.704 7.431 0.521 0.375-0.234 0.978-1.678 1.341-1.444 0.362-2.869 1.293-3.166 2.068-0.298 0.776-1.23 1.41-2.073 1.41-0.842 0-1.531 0.675-1.531 1.5s-0.689 1.5-1.531 1.5c-0.843 0-1.78 0.648-2.084 1.439s-1.864 1.727-3.469 2.079c-1.604 0.353-2.916 1.28-2.916 2.061 0 0.782-0.675 1.421-1.5 1.421s-1.5 0.444-1.5 0.987c0 0.542-1.468 1.599-3.262 2.349-1.794 0.749-5.095 3.125-7.337 5.279s-5.352 4.584-6.911 5.4c-1.559 0.817-3.657 1.929-4.663 2.472-3.112 1.682-2.339 6.679 1.673 10.81 1.925 1.982 3.5 4.076 3.5 4.653 0 0.578 0.703 1.05 1.562 1.05 1.159 0 0.706-1.17-1.75-4.528-1.822-2.49-3.899-5.369-4.617-6.398-1.199-1.72 0.6-3.262 22.247-19.074 14.875-10.865 23.292-17.626 22.849-18.351-0.625-1.022-19.078-26.528-19.944-27.566-0.191-0.229-0.347 0.459-0.347 1.528m38.381 27.822c3.243 4.252 3.258 5.102 0.128 7.153-1.371 0.898-2.276 1.983-2.011 2.41 0.264 0.428-0.077 0.716-0.759 0.641-1.687-0.187-50.9 35.769-49.587 36.229 0.574 0.201 2.331-0.586 3.905-1.75s3.239-2.116 3.699-2.116c0.461 0 1.942-1.331 3.291-2.958 1.349-1.626 3.245-2.976 4.213-3 0.968-0.023 2.53-0.942 3.472-2.042s2.287-2 2.99-2 1.278-0.675 1.278-1.5 0.689-1.5 1.531-1.5c0.843 0 1.78-0.648 2.084-1.439s1.864-1.727 3.469-2.079c1.604-0.353 2.916-1.28 2.916-2.061 0-0.782 0.689-1.421 1.531-1.421 0.843 0 1.769-0.618 2.059-1.373 0.289-0.755 2.716-2.564 5.392-4.021 2.676-1.456 5.089-3.201 5.363-3.877 0.273-0.676 0.55-0.329 0.614 0.771 0.095 1.616 0.927 1.087 4.329-2.75l4.212-4.75 19.81 17.093c18.065 15.587 19.695 17.257 18.5 18.954-0.72 1.023-11.205 13.31-23.299 27.305l-21.988 25.444-2.512-1.887c-1.381-1.038-4.27-3.415-6.42-5.281l-3.908-3.394 18.629-21.53c10.247-11.842 18.756-21.937 18.909-22.434 0.327-1.058-25.34-23.484-26.057-22.767-0.57 0.57 2.811 4.497 3.872 4.497 0.399 0 3.873 3.038 7.719 6.75s8.145 7.578 9.553 8.59c3.228 2.321 2.707 3.783-3.506 9.845-2.641 2.577-4.802 5.116-4.802 5.643s-0.675 1.217-1.5 1.534c-0.825 0.316-1.5 1.226-1.5 2.021s-1.575 3.067-3.5 5.049c-1.925 1.983-3.5 4.046-3.5 4.586s-0.675 0.982-1.5 0.982-1.5 0.437-1.5 0.971-2.159 3.121-4.797 5.75c-2.639 2.628-5.493 5.904-6.343 7.279-1.398 2.261-1.393 2.74 0.047 5.009 2.501 3.939 5.429 6.991 6.708 6.991 0.644 0 1.43 0.675 1.747 1.5 0.804 2.096 7.638 2.068 7.638-0.031 0-0.843 0.644-1.779 1.43-2.081 0.787-0.301 1.888-1.862 2.448-3.468s1.491-2.92 2.07-2.92 1.052-0.675 1.052-1.5 0.43-1.5 0.955-1.5c1.24 0 6.045-4.805 6.045-6.045 0-0.525 0.675-0.955 1.5-0.955s1.5-0.393 1.5-0.874 1.575-2.594 3.5-4.696c1.925-2.101 3.5-4.258 3.5-4.792 0-1.085-0.241-0.815 11.495-12.883 11.42-11.744 11.469-13.853 0.487-21.255-2.447-1.65-5.68-4.237-7.182-5.75-1.503-1.513-3.198-2.75-3.766-2.75-0.569 0-1.034-0.675-1.034-1.5s-0.451-1.5-1.002-1.5-2.464-1.482-4.25-3.293c-4.464-4.525-12.354-10.707-13.666-10.707-0.595 0-1.082-1.105-1.082-2.455 0-2.462-4.153-7.545-6.164-7.545-0.59 0 0.105 1.545 1.545 3.433m359.98 5.067c-0.317 0.825-1.203 1.5-1.969 1.5s-1.393 0.46-1.393 1.021c0 0.562-1.237 1.566-2.75 2.23-3.389 1.489-4.215 2.583-4.235 5.608-0.016 2.522 3.665 7.095 5.735 7.124 0.688 9e-3 1.25 0.706 1.25 1.548 0 0.843 0.675 1.791 1.5 2.107 1.657 0.636 2.154 7.362 0.544 7.362-2.192 0-12.044 7.787-12.044 9.519 0 1.226-2.665 4.941-5.25 7.317-1.244 1.143-1.73 3.063-1.683 6.636l0.068 5.028 1.216-4.505c1.71-6.336 6.437-12.765 15.132-20.578l7.486-6.726-6.665-7.446-6.664-7.446 5.871-5.15c3.228-2.832 6.183-5.149 6.564-5.149 0.382 0 10.476 11.025 22.43 24.5s22.595 25.444 23.646 26.597c1.91 2.096 1.901 2.107-12.111 14.5-16.32 14.436-22.403 17.895-31.474 17.9-7.558 4e-3 -13.22-2.661-18.571-8.74-2.215-2.516-4.664-6.641-5.441-9.166l-1.415-4.591-0.069 4.507c-0.061 3.915 0.39 4.929 3.43 7.719 1.925 1.767 3.5 3.676 3.5 4.243s0.675 1.031 1.5 1.031 1.5 0.675 1.5 1.5 0.653 1.5 1.45 1.5c0.798 0 1.891 0.788 2.429 1.75 0.801 1.433 2.7 1.812 10.479 2.094 8.64 0.313 9.663 0.155 11.293-1.75 0.987-1.152 2.833-2.094 4.103-2.094s2.568-0.675 2.884-1.5c0.317-0.825 1.203-1.5 1.969-1.5s1.393-0.438 1.393-0.974 1.306-1.65 2.903-2.476 5.028-3.537 7.625-6.026c2.597-2.488 5.116-4.524 5.597-4.524s0.875-0.675 0.875-1.5 0.43-1.5 0.955-1.5c1.337 0 5.278-4.118 6.921-7.231 1.235-2.341 1.151-2.922-0.818-5.688-1.207-1.695-2.614-3.081-3.126-3.081-0.513 0-0.932-0.675-0.932-1.5s-0.675-1.5-1.5-1.5-1.5-0.463-1.5-1.028c0-0.566-3.493-4.551-7.763-8.855s-9.107-9.8-10.75-12.212c-1.643-2.413-6.474-7.915-10.737-12.228s-7.75-8.255-7.75-8.759c0-1.54-5.023-1.021-5.638 0.582m4.418 42.764c-5.852 5.592-7.758 8.1-8.283 10.902-0.89 4.743 1.62 10.125 5.977 12.818 3.825 2.364 6.385 2.52 10.835 0.66 4.018-1.679 15.191-11.333 15.191-13.126 0-1.25-14.379-18.297-15.559-18.447-0.308-0.039-3.98 3.198-8.161 7.193m4.47-2.089c-1.788 1.105-3.25 2.418-3.25 2.917s-0.675 0.908-1.5 0.908-1.5 0.575-1.5 1.278-0.9 2.048-2 2.99c-1.588 1.36-2 2.95-2 7.722 0 4.47 0.357 6.01 1.393 6.01 0.766 0 1.652 0.675 1.969 1.5 0.413 1.078 2.099 1.5 5.984 1.5 3.588 0 5.828-0.505 6.654-1.5 0.685-0.825 1.829-1.5 2.543-1.5 1.455 0 9.457-7.584 9.457-8.963 0-0.763-13.798-15.18-14.312-14.954-0.103 0.045-1.65 0.987-3.438 2.092m-60.75 1.552c-1.1 0.273-2.36 1.121-2.8 1.884-0.44 0.764-1.847 1.389-3.127 1.389-1.281 0-2.888 0.675-3.573 1.5s-1.906 1.5-2.715 1.5c-0.808 0-2.614 0.9-4.012 2-1.399 1.1-3.334 2-4.301 2s-2.017 0.675-2.334 1.5c-0.316 0.825-1.728 1.5-3.138 1.5s-2.822 0.675-3.138 1.5c-0.317 0.825-1.657 1.5-2.979 1.5-1.321 0-3.173 0.9-4.115 2s-2.937 2-4.434 2c-5.265 0-7.51 6.6-3.834 11.273 1.1 1.398 2 2.986 2 3.528s0.674 1.244 1.498 1.56c1.036 0.397 0.553-1.298-1.565-5.494-1.685-3.338-2.922-6.199-2.748-6.357 0.906-0.826 49.075-24.58 49.312-24.318 0.73 0.801 31.503 62.891 31.503 63.562 0 1.042-46.919 24.414-47.854 23.836-1.031-0.637-5.581-10.495-5.066-10.974 0.231-0.215 7.733-4.044 16.67-8.509 8.938-4.465 16.25-8.333 16.25-8.594 0-1.293-6.536-13.513-7.228-13.513-0.439 0-7.114 3.164-14.832 7.03-7.718 3.867-14.372 6.821-14.785 6.566-1.036-0.64-5.594-10.499-5.075-10.976 0.231-0.213 4.02-2.216 8.42-4.453 6.135-3.119 7.384-4.079 5.357-4.117-1.464-0.028-2.9 0.619-3.219 1.45-0.316 0.825-1.42 1.5-2.454 1.5-1.033 0-2.916 0.9-4.184 2s-2.857 2-3.531 2c-0.673 0-1.745 0.627-2.381 1.394-0.891 1.074-0.805 1.747 0.377 2.929 0.844 0.844 1.535 2.443 1.535 3.555 0 2.484 5.826 8.126 7.664 7.421 0.735-0.282 1.336-0.879 1.336-1.327 0-0.447 1.38-1.116 3.068-1.487 1.687-0.37 3.31-1.306 3.607-2.079 0.296-0.773 1.561-1.406 2.81-1.406 1.248 0 2.83-0.675 3.515-1.5s2.021-1.5 2.969-1.5c0.949 0 2.763-0.9 4.031-2s2.834-2 3.479-2c1.836 0 5.521 4.415 5.521 6.614 0 1.093 0.54 2.526 1.2 3.186 0.933 0.933 0.745 1.2-0.847 1.2-1.126 0-3.085 0.9-4.353 2s-3.151 2-4.184 2c-1.034 0-2.138 0.675-2.454 1.5-0.317 0.825-1.667 1.5-3 1.5-1.334 0-2.684 0.675-3 1.5-0.317 0.825-1.635 1.5-2.93 1.5s-3.159 0.857-4.143 1.905-2.914 2.06-4.289 2.25c-3.344 0.461-4.063 5.77-1.152 8.503 1.079 1.013 2.117 2.967 2.307 4.342 0.289 2.093 0.957 2.551 4.103 2.811 2.69 0.222 3.928-0.133 4.357-1.25 0.329-0.859 1.455-1.561 2.502-1.561 1.046 0 2.673-0.9 3.615-2s2.752-2 4.022-2 2.568-0.675 2.884-1.5c0.317-0.825 1.657-1.5 2.979-1.5 1.321 0 3.173-0.9 4.115-2s2.752-2 4.022-2 2.568-0.675 2.884-1.5c0.317-0.825 1.598-1.5 2.847-1.5 1.248 0 2.83-0.675 3.515-1.5s2.009-1.5 2.942-1.5c2.541 0 8.058-5.368 8.058-7.839 0-1.189-0.9-3.061-2-4.161s-2-2.62-2-3.378c0-0.757-0.675-1.937-1.5-2.622s-1.5-2.058-1.5-3.051-0.675-2.481-1.5-3.306-1.5-2.147-1.5-2.937-0.831-2.509-1.848-3.821c-1.016-1.312-2.149-3.622-2.519-5.135-0.369-1.513-1.113-2.75-1.652-2.75-0.54 0-0.981-0.677-0.981-1.504s-0.9-3.182-2-5.235c-1.1-2.052-2-4.315-2-5.028 0-0.712-0.675-1.555-1.5-1.871-0.825-0.317-1.5-1.166-1.5-1.887s-1.138-3.485-2.528-6.143c-5.562-10.631-5.842-10.875-10.972-9.605m-255.47 7.734c-0.667 0.804-2.184 1.768-3.372 2.143-3.705 1.169-13.66 11.994-13.66 14.853 0 1.594-0.56 2.543-1.5 2.543-0.971 0-1.5 0.973-1.5 2.759 0 1.677-0.785 3.25-2 4.009-1.1 0.687-2 2.322-2 3.633 0 1.312-0.675 2.644-1.5 2.961-0.86 0.33-1.5 1.823-1.5 3.5s-0.64 3.17-1.5 3.5c-0.825 0.316-1.5 1.614-1.5 2.884s-0.9 3.08-2 4.022-2 2.815-2 4.163-0.45 2.729-1 3.069c-1.764 1.09-1.07 3.344 1.25 4.057 1.238 0.38 3.055 1.535 4.039 2.567s2.848 1.876 4.143 1.876 2.613 0.675 2.93 1.5c0.869 2.266 3.366 1.8 4.833-0.903 5.517-10.16 6.861-13.194 6.602-14.901-0.192-1.266-1.689 0.911-4.247 6.175-2.173 4.471-4.299 8.129-4.725 8.129-1.529 0-13.825-5.993-13.824-6.739 2e-3 -2.153 20.591-42.277 23.54-45.877 5.007-6.11 12.191-9.384 20.59-9.384 3.706 0 7.956 0.463 9.443 1.028 3.207 1.219 4.2 0.609 2.446-1.504-1.787-2.153-20.21-2.205-21.988-0.063m28.968 5.605c11.284 6.216 17 14.784 17 25.481 0 3.385-0.511 7.684-1.135 9.554-0.974 2.914-19.58 42.83-20.377 43.713-0.433 0.481-14.488-6.752-14.488-7.456 0-0.339 4.371-9.67 9.714-20.737 8.735-18.093 9.718-20.695 9.75-25.819 0.021-3.27-0.497-6.231-1.214-6.95-1-1.002-1.25 0.465-1.25 7.341 0 6.716-0.328 8.719-1.5 9.169-0.825 0.316-1.5 1.614-1.5 2.884s-0.9 3.08-2 4.022-2 2.794-2 4.115c0 1.322-0.675 2.662-1.5 2.979-0.825 0.316-1.5 1.728-1.5 3.138s-0.625 2.802-1.388 3.095-1.657 1.88-1.986 3.527c-0.33 1.647-1.28 3.675-2.113 4.507-0.832 0.833-1.513 2.517-1.513 3.742 0 1.226-0.47 2.699-1.046 3.275-1.396 1.396 4.133 7.354 6.825 7.354 1.087 0 2.536 0.675 3.221 1.5 1.385 1.669 7 2.07 7 0.5 0-0.55 0.9-1.9 2-3s2-2.852 2-3.893 0.675-2.152 1.5-2.469c0.86-0.33 1.5-1.823 1.5-3.5s0.64-3.17 1.5-3.5c0.825-0.316 1.5-1.614 1.5-2.884s0.9-3.08 2-4.022 2-2.794 2-4.115c0-1.322 0.675-2.662 1.5-2.979 0.825-0.316 1.5-1.566 1.5-2.778 0-1.211 0.675-2.948 1.499-3.859 3.342-3.693 2.869-31.001-0.538-31.001-0.528 0-0.961-0.5-0.961-1.11 0-1.878-8.787-9.89-10.846-9.89-1.067 0-2.199-0.675-2.516-1.5-0.323-0.843-1.793-1.492-3.357-1.482-2.454 0.016-2.135 0.374 2.719 3.048m205.09 14.224c-13.552 6.779-15.914 8.269-13.55 8.546 1.776 0.208 3.304-0.267 4.023-1.25 0.638-0.872 1.897-1.586 2.799-1.586s2.54-0.9 3.64-2 3.077-2 4.393-2 2.652-0.675 2.969-1.5c0.316-0.825 1.699-1.5 3.071-1.5 1.473 0 2.935-0.82 3.567-2 0.589-1.1 1.855-2 2.813-2 1.934 0 5.187 3.317 5.187 5.289 0 0.696 0.647 2.19 1.438 3.319 1.29 1.842 1.222 2.238-0.663 3.853-1.156 0.99-3.237 2.103-4.623 2.474-1.387 0.371-2.711 1.243-2.943 1.937-0.233 0.7 2.304-0.112 5.685-1.819 3.358-1.695 6.106-3.312 6.106-3.592 0-0.668-6.953-14.473-7.263-14.421-0.13 0.022-7.623 3.734-16.649 8.25m-226.69-3.385c-5.452 2.477-8.566 7.104-15.83 23.529-1.802 4.075-2.104 5.566-1.127 5.566 0.733 0 1.621-1.532 1.972-3.403 0.351-1.872 1.301-3.658 2.111-3.969 0.849-0.326 1.473-1.849 1.473-3.597 0-2.028 0.497-3.031 1.5-3.031 0.933 0 1.5-0.944 1.5-2.5 0-1.602 1.504-4.004 4.188-6.687 4.027-4.028 4.427-4.188 10.464-4.188 4.485 0 6.808 0.481 8.141 1.688 2.742 2.481 4.992 2.212 2.698-0.323-1.47-1.624-10.059-5.059-12.423-4.968-0.312 0.012-2.413 0.86-4.667 1.883m191.6 2.095c-1.375 0.44-4.187 0.845-6.25 0.9-2.062 0.055-3.75 0.606-3.75 1.225 0 0.739 1.116 0.897 3.25 0.461 1.788-0.366 5.163-0.933 7.5-1.261s4.25-0.986 4.25-1.461c0-1.015-1.537-0.973-5 0.136m13.466 34.929c3.849 19.217 6.746 35.192 6.438 35.501-0.309 0.308-3.451 1.193-6.983 1.965l-6.421 1.404 6.076 0.101c5.133 0.084 6.413-0.259 8.25-2.214 2.544-2.709 2.77-4.947 0.674-6.686-1.037-0.86-1.5-3.15-1.5-7.411 0-4.192-0.64-7.422-2-10.089-1.303-2.556-2-5.897-2-9.589 0-3.817-0.49-6.072-1.5-6.911-1.049-0.871-1.5-3.181-1.5-7.688 0-3.544-0.562-7.426-1.25-8.628-0.687-1.201-1.7-4.847-2.25-8.102s-1.457-6.07-2.017-6.256c-0.559-0.185 2.133 15.386 5.983 34.603m-23.363-25.008c-0.075 4.69 0.345 6.916 1.558 8.256 0.913 1.01 1.475 1.945 1.25 2.079-9.58 5.69-11.38 5.322-21.012-4.296-8.971-8.959-11.664-10.115-17.319-7.431-4.811 2.283-3.827 3.022 2.054 1.542l4.71-1.187 8.655 8.615 8.655 8.614 6.631-1.221c3.647-0.672 7.137-1.535 7.755-1.917 0.811-0.501 0.573-3.307-0.856-10.085l-1.979-9.39-0.102 6.421m-95.103-2.244c-2.553 1.06-2.973 2.572-2.864 10.323l0.105 7.5 1.629-8.184c0.897-4.501 1.861-8.407 2.142-8.679 0.499-0.482 14.936 1.977 15.619 2.661 0.189 0.188-0.551 5.035-1.644 10.77-2.397 12.581-2.404 12.778-0.38 10.754 1.021-1.021 1.804-4.105 2.15-8.464 0.299-3.772 1.156-7.799 1.905-8.95 1.215-1.867 1.074-2.401-1.313-4.976-2.36-2.547-3.444-2.914-9.261-3.131-3.623-0.136-7.263 0.034-8.088 0.376m48.667 3.99c-1.21 1.21-0.694 4.333 0.716 4.333 0.761 0 1.619 0.9 1.907 2 0.287 1.1 1.24 2 2.116 2 0.877 0 1.594 0.675 1.594 1.5s0.411 1.5 0.914 1.5 2.536 1.575 4.518 3.5c1.983 1.925 4.004 3.5 4.493 3.5 1.537 0-0.087 4.017-2.05 5.067-1.055 0.564-1.875 2.082-1.875 3.468 0 1.524-0.572 2.465-1.5 2.465-1.243 0-1.5 1.892-1.5 11.031 0 8.884 0.292 11.144 1.5 11.607 0.825 0.317 1.5 1.649 1.5 2.961 0 1.311 0.9 2.946 2 3.633s2 1.816 2 2.509c0 0.692 0.62 1.259 1.378 1.259 0.757 0 1.891 0.619 2.518 1.375 0.628 0.757 2.874 1.652 4.991 1.991 2.116 0.338 5.145 1.292 6.731 2.118 3.735 1.949 8.126 1.909 11.882-0.106 1.65-0.885 6.032-1.842 9.738-2.127 3.9-0.3 7.216-1.094 7.873-1.885 1.455-1.753 1.335-1.745-11.111 0.716-15.322 3.03-24.339 1.711-31.923-4.671-4.482-3.771-7.261-9.838-7.847-17.129-0.621-7.742 1.36-13.524 6.421-18.735l3.572-3.677-9.612-9.021c-5.286-4.961-9.611-9.402-9.611-9.868 0-0.467 1.237-1.036 2.75-1.265 2.694-0.408 2.688-0.419-0.333-0.566-1.696-0.083-3.384 0.15-3.75 0.517m-83.232 16.227c0.281 0.455 2.435 1.097 4.788 1.427 2.352 0.33 5.852 0.9 7.777 1.267 3.114 0.593 3.335 0.501 2-0.837-1.571-1.575-15.487-3.349-14.565-1.857m29.815-0.174c-0.687 0.246-1.25 1.084-1.25 1.863 0 1.047-1.503 1.443-5.75 1.517-5.182 0.091-5.404 0.178-2.25 0.879 9.838 2.187 9.804 2.191 10.524-1.09 0.739-3.364 0.555-3.822-1.274-3.169m-34.583 0.947c-0.367 0.366-0.667 3.693-0.667 7.393 0 7.689 0.243 7.922 8.332 7.972 2.949 0.018 6.001 0.662 7.109 1.5 1.231 0.93 4.251 1.468 8.25 1.468h6.309v7.95c0 6.306-0.337 8.139-1.628 8.862-1.229 0.687-1.324 1.1-0.389 1.678 1.806 1.116 2.51-0.588 3.977-9.62 1.001-6.162 1.034-8.256 0.138-8.809-0.646-0.4-5.77-1.518-11.386-2.486-5.617-0.968-12.391-2.214-15.054-2.77l-4.842-1.01 0.626-3.648c0.345-2.006 0.872-4.884 1.172-6.397 0.511-2.577-0.438-3.593-1.947-2.083m48.487 24.945c-5.447 30.754-4.674 28.34-8.855 27.662-2.785-0.452-3.465-0.272-3.1 0.823 0.295 0.885 1.912 1.403 4.383 1.403h3.915l0.799-6.47c0.439-3.559 1.33-6.799 1.979-7.2 0.683-0.422 1.347-4.01 1.573-8.499 0.223-4.398 1.011-8.713 1.818-9.944 0.987-1.507 1.335-4.405 1.13-9.42-0.294-7.183-0.324-7.086-3.642 11.645m82.846-15.75-7.5 1.638 5.455 0.309c3.088 0.176 6.479-0.238 7.815-0.953 3.097-1.658 4.194-0.015 4.215 6.312 0.017 5.256 0.751 7.832 2.233 7.832 0.617 0 0.738-1.448 0.315-3.75-1.835-9.98-2.795-13.241-3.866-13.138-0.642 0.061-4.542 0.849-8.667 1.75m-12.797 5.089c-3.352 3.352-4.281 6.669-3.173 11.33 0.68 2.861 0.777 2.634 0.868-2.031 0.056-2.888 0.532-5.25 1.057-5.25s2.1-1.145 3.5-2.545c2.599-2.6 3.275-4.455 1.622-4.455-0.508 0-2.251 1.328-3.874 2.951m25.691 14.049-0.394 3.5-11.769 0.282c-9.825 0.235-11.866 0.029-12.357-1.25-0.323-0.843-1.293-1.532-2.155-1.532-2.914 0 2.855 4.923 6.589 5.624 2.833 0.531 20.719-1.818 21.759-2.858 0.154-0.154-0.071-1.852-0.499-3.773l-0.779-3.493-0.395 3.5m-154.48 2.355c-0.286 0.746-0.384 4.233-0.218 7.75l0.301 6.395 4 0.186c4 0.186 4 0.186 0.699-0.634-1.815-0.451-3.549-1.069-3.852-1.372-0.672-0.672 0.514-9.844 1.469-11.366 0.477-0.761 5.476-0.204 16.554 1.844 8.729 1.614 16.124 2.681 16.434 2.372 1.65-1.65-2.748-3.065-10.535-3.39-5.617-0.234-9.117-0.846-10.022-1.75-1.9-1.9-14.103-1.929-14.83-0.035m9.782 15.753c0.316 0.955 2.949 1.594 8.381 2.035 4.356 0.354 9.359 1.388 11.117 2.297 2.279 1.179 5.152 1.568 10 1.357l6.803-0.297-15.5-2.814c-8.525-1.547-16.796-3.073-18.381-3.391-2.181-0.438-2.768-0.24-2.42 0.813" fill="#bfbfbf" fill-rule="evenodd"/>
<path d="m503.67 175.89c-3.756 0.887-7.174 2.287-7.597 3.112-0.422 0.825-1.557 11.625-2.521 24s-2.045 23.675-2.404 25.111c-0.572 2.296-2.282-0.098-14.151-19.813l-13.5-22.425-4 0.604c-2.2 0.332-5.624 1.036-7.608 1.564l-3.609 0.96-1.129 11.749c-0.621 6.463-1.633 17.825-2.248 25.25s-1.444 13.851-1.841 14.279c-0.398 0.429-6.696-9.146-13.996-21.276l-13.272-22.056-3.512 0.659c-6.989 1.311-12.782 3.04-12.637 3.772 0.171 0.865 37.271 61.688 38.421 62.991 0.763 0.863 15.779-1.959 17.134-3.22 0.387-0.36 1.708-11.791 2.936-25.402 1.229-13.611 2.487-24.737 2.797-24.724s6.414 9.69 13.564 21.506c7.15 11.815 13.45 21.316 14 21.113 0.55-0.204 4.488-1.188 8.75-2.189 5.595-1.313 7.75-2.254 7.751-3.386 0-0.862 1.364-17.716 3.03-37.453 1.666-19.738 2.904-35.988 2.749-36.112-0.154-0.124-3.352 0.5-7.107 1.386m31.992 3.789c-0.796 2.816-8.005 69.319-7.559 69.738 0.599 0.563 54.335 6.449 54.796 6.003 0.222-0.214 0.447-3.204 0.5-6.644l0.098-6.254-18.5-2.022-18.5-2.023 0.19-7.844c0.104-4.314 0.457-8.111 0.784-8.439 0.327-0.327 7.814 0.212 16.637 1.197s16.182 1.638 16.353 1.451 0.62-3.061 0.998-6.387l0.687-6.047-11.824-1.25c-6.504-0.687-13.995-1.515-16.647-1.841l-4.823-0.592 0.694-7.611c0.382-4.187 0.796-7.731 0.921-7.877s8.441 0.67 18.481 1.814c10.04 1.143 18.509 1.824 18.819 1.514 0.581-0.58 2.306-11.82 1.881-12.246-0.131-0.13-10.568-1.388-23.194-2.794-12.627-1.406-24.604-2.806-26.617-3.112-2.971-0.452-3.756-0.213-4.175 1.266m78.032 11.005c-0.405 0.657-16.391 40.362-24.723 61.405l-1.817 4.587 20.672 8.318c18.13 7.295 21.617 8.375 28.369 8.788 6.96 0.426 8.126 0.22 12.154-2.14 8.817-5.167 11.439-17.981 5.322-26.001-1.471-1.928-2.674-3.704-2.674-3.947s1.249-0.692 2.777-0.997c9.945-1.989 15.324-15.742 9.821-25.107-4.44-7.554-6.636-8.705-48.247-25.267-0.632-0.252-1.376-0.089-1.654 0.361m7.961 24.093c-1.462 3.726-2.658 7.279-2.658 7.895 0 1.676 17.438 8.33 21.833 8.33 7.49 0 10.879-8.015 5.615-13.28-2.16-2.16-18.724-9.72-21.297-9.72-0.459 0-2.031 3.049-3.493 6.775m-11.53 28.363c-1.752 4.476-3.06 8.237-2.907 8.359s5.083 2.085 10.954 4.362c15.068 5.845 20.558 5.511 22.835-1.389 2.081-6.305-1.564-9.675-17.267-15.963-4.816-1.929-9.133-3.507-9.593-3.507-0.461 0-2.27 3.662-4.022 8.138m87.021 29.027-25.351 25.103 11.851 11.978c6.518 6.588 14.493 13.956 17.722 16.374 16.048 12.016 35.205 10.378 48.48-4.147 6.933-7.586 9.425-14.512 8.985-24.973-0.524-12.462-3.22-16.992-20.687-34.75-7.98-8.113-14.765-14.736-15.079-14.719-0.313 0.017-11.978 11.328-25.921 25.134m-374.97-17.849-6.205 6.261 1.098 20.002c1.615 29.408 2.652 28.084-11.353 14.482l-11.777-11.438-5.473 5.404c-3.009 2.973-5.472 5.713-5.472 6.089 0 0.377 6.185 6.693 13.745 14.035s19.039 18.504 25.51 24.805l11.764 11.457 5.491-5.423c3.019-2.982 5.5-5.887 5.513-6.456s-2.688-3.509-6.002-6.534l-6.025-5.5-0.642-7.25c-0.755-8.541-3.272-7.82 20.146-5.776l16 1.396 6.454-6.398c3.549-3.519 6.172-6.679 5.828-7.023s-11.526-1.702-24.85-3.017c-13.323-1.315-24.336-2.513-24.472-2.661-0.136-0.149-0.776-9.715-1.423-21.257-0.646-11.542-1.282-21.092-1.412-21.222-0.13-0.131-3.03 2.58-6.443 6.024m387.06 28.946c-8.381 8.394-15.238 15.764-15.238 16.379 0 1.909 14.049 14.477 18.384 16.446 11.144 5.061 24.289-0.663 29.862-13.002 2.297-5.086 1.969-11.827-0.841-17.281-1.614-3.132-15.076-17.804-16.336-17.804-0.326 0-7.45 6.868-15.831 15.262m-434.48 36.295c-15.587 5.545-27.071 24.534-25.435 42.056 1.189 12.732 9.247 23.935 21.271 29.574 11.707 5.49 24.664 4.62 35.69-2.398 13.207-8.405 21.303-27.816 17.761-42.581l-1.205-5.024-6.673 2.26c-6.084 2.061-6.628 2.471-6.172 4.658 0.275 1.319 0.475 4.91 0.444 7.98-0.133 13.148-13.347 24.608-25.659 22.254-15.505-2.965-24.137-16.583-19.265-30.392 2.284-6.474 5.855-10.491 11.998-13.497 3.985-1.949 5.405-3.161 5.072-4.327-0.254-0.891-1.017-3.645-1.695-6.12s-1.494-4.786-1.814-5.136c-0.319-0.35-2.263-0.038-4.318 0.693m499.24 4.747c-6.325 3.466-20.335 11.13-31.134 17.032l-19.633 10.731 12.952 23.716c7.123 13.044 13.259 24.032 13.633 24.416 0.725 0.743 11.185-4.901 11.178-6.032-2e-3 -0.367-4.061-8.091-9.021-17.165-10.206-18.675-10.215-16.745 0.108-22.013l5.583-2.849 7.164 13.18c3.94 7.249 7.553 13.781 8.029 14.517 0.695 1.071 1.884 0.82 6.003-1.267 2.826-1.432 5.138-3.118 5.138-3.746s-3.417-7.404-7.592-15.058c-4.176-7.653-7.439-14.039-7.25-14.191 2.194-1.77 12.937-6.634 13.663-6.186 0.528 0.327 4.672 7.46 9.209 15.853 4.536 8.392 8.437 15.473 8.669 15.735 0.554 0.627 11.301-5.193 11.301-6.12 0-1.198-25.222-46.857-25.883-46.855-0.339 0-5.792 2.837-12.117 6.302m13.75 78.682c-16.913 12.627-30.75 23.441-30.75 24.031 0 1.347 3.177 14.338 3.643 14.893 0.189 0.225 17.334 3.412 38.1 7.08 25.749 4.55 37.848 6.311 38.042 5.54 0.326-1.296-2.387-13.466-3.179-14.258-0.289-0.288-12.456-2.63-27.039-5.205s-26.711-4.881-26.951-5.124c-0.24-0.244 9.626-7.834 21.925-16.868 12.298-9.034 22.216-16.684 22.039-17-0.176-0.316-1.084-4.063-2.018-8.325s-2.005-7.744-2.38-7.736c-0.375 7e-3 -14.519 10.345-31.432 22.972m-525.51 6.471c-20.491 4.523-37.41 8.408-37.598 8.633-0.187 0.226-1.012 3.862-1.831 8.081l-1.491 7.671 31.254 22.579c17.19 12.419 31.664 22.579 32.165 22.579 0.502 0 1.563-3.488 2.359-7.75l1.447-7.75-6.774-4.818c-3.726-2.65-6.756-5.125-6.735-5.5 0.022-0.375 1.516-7.649 3.321-16.165 3.701-17.461 2.011-15.348 14.604-18.256l5.464-1.261 1.242-6c1.442-6.96 1.642-10.549 0.58-10.383-0.413 0.064-17.516 3.817-38.007 8.34m-9.795 17.008c-6.079 1.23-11.576 2.416-12.217 2.636-0.64 0.219 4.334 4.133 11.053 8.697l12.216 8.297 1.666-7.07c0.916-3.888 1.968-8.86 2.338-11.047 0.812-4.805 1.085-4.778-15.056-1.513m513.18 54.665c-0.321 5.703-0.859 18.358-1.195 28.12l-0.612 17.75h6.591c6.49 0 6.593-0.042 6.729-2.75 0.076-1.513 0.414-10.175 0.75-19.25l0.612-16.5 4.997-0.315c2.749-0.173 6.519-0.029 8.378 0.319l3.381 0.635-0.45 16.43-0.449 16.431 4.571 0.077c2.515 0.042 5.295 0.217 6.178 0.39 1.352 0.264 1.708-1.214 2.245-9.327 0.351-5.302 0.641-12.921 0.644-16.932l5e-3 -7.292 15.5 0.584v19 19l12.29 0.59 0.576-13.295c1.889-43.581 1.93-40.693-0.592-41.217-1.251-0.26-13.974-0.732-28.274-1.05-14.3-0.319-29.441-0.846-33.646-1.173l-7.645-0.595-0.584 10.37m-548.44-6.416c-2.151 0.411-2.274 0.804-1.768 5.614 0.3 2.844 1.03 15.747 1.623 28.672s1.284 24.513 1.537 25.75c0.419 2.059 1.017 2.25 7.038 2.25h6.579l-0.715-11.452-0.716-11.451 2.367-0.495c1.302-0.272 13.392-0.988 26.867-1.591 13.475-0.604 25.512-1.311 26.75-1.573 2.088-0.442 2.25-1.009 2.25-7.898 0-4.082-0.451-7.701-1.002-8.041-0.551-0.341-13.646 0.113-29.1 1.007-15.455 0.894-28.332 1.393-28.617 1.109-0.284-0.285-0.753-5.489-1.041-11.566l-0.523-11.049-4.609 0.136c-2.534 0.075-5.649 0.335-6.92 0.578m544.81 57.641c0 0.452-12.409 45.13-13.534 48.727-0.645 2.063 11.404 5.746 12.579 3.845 0.398-0.644 2.685-8.316 5.082-17.049 2.545-9.275 4.857-15.878 5.559-15.878 0.661 0 13.237 3.379 27.948 7.51 14.711 4.13 27.044 7.168 27.408 6.75 0.734-0.844 3.958-12.251 3.958-14.005 0-0.612-2.362-1.782-5.25-2.599s-17.625-4.93-32.75-9.14-28.288-7.879-29.25-8.153-1.75-0.277-1.75-8e-3m-493.47 3.239c-5.085 1.862-9.151 5.775-10.724 10.321-0.774 2.238-1.253 9.446-1.273 19.178-0.037 17.482-0.504 18.907-6.203 18.907-7.051 0-11.76-9.997-11.18-23.736l0.328-7.764-5.989-0.588c-3.294-0.324-6.417-0.212-6.939 0.25-0.522 0.461-0.938 4.551-0.923 9.088 0.043 13.236 4.645 25.83 12.037 32.94 4.655 4.478 7.941 5.81 14.336 5.81 8.371 0 13.402-3.005 17.097-10.21 1.63-3.179 1.903-5.943 1.903-19.296 0-15.214 0.058-15.643 2.455-18.039 3.098-3.099 4.643-3.085 8.398 0.075 5.453 4.588 8.274 19.318 5.867 30.637l-0.78 3.667 6.576 0.705c3.616 0.387 6.872 0.407 7.235 0.044 1.258-1.259 1.465-19.225 0.286-24.903-1.68-8.095-7.402-18.981-12.082-22.987-6.397-5.475-13.029-6.806-20.425-4.099m481.25 59.297c-10.345 4.147-17.98 11.869-23.565 23.833-2.334 5-2.696 7.053-2.696 15.276 0 8.191 0.366 10.285 2.659 15.196 3.524 7.546 10.389 14.23 18.619 18.13 5.892 2.791 7.727 3.174 15.201 3.174 7.49 0 9.303-0.381 15.261-3.203 20.004-9.475 29.569-34.724 20.498-54.108-2.972-6.349-10.03-13.194-17.272-16.749-7.815-3.838-21.195-4.56-28.705-1.549m-438.78 14.614c-2.475 1.898-4.379 3.937-4.231 4.531 0.148 0.593 4.443 6.791 9.544 13.772 5.101 6.98 9.591 13.209 9.978 13.841 0.443 0.725-7.96 7.476-22.809 18.322-15.112 11.038-23.26 17.594-22.81 18.351 2.737 4.598 8.835 11.697 9.747 11.348 2.846-1.093 56.574-41.064 56.519-42.049-0.082-1.484-29.149-40.902-30.438-41.277-0.55-0.16-3.025 1.263-5.5 3.161m439.85 1.511c-13.342 7.049-16.912 24.94-7.049 35.323 9.445 9.944 23.182 11.187 32.326 2.925 13.199-11.924 10.168-30.806-6.129-38.183-5.836-2.642-14.217-2.67-19.148-0.065m-50.266 42.451-5.913 5.368 13.296 14.856-7.575 6.806c-13.54 12.167-18.095 22.138-14.991 32.817 1.897 6.526 7.903 13.688 13.924 16.602 2.883 1.396 6.263 2.083 10.239 2.081 9.071-5e-3 15.154-3.464 31.474-17.9 14.012-12.393 14.021-12.404 12.111-14.5-1.051-1.153-11.684-13.122-23.629-26.597-11.944-13.475-22.011-24.59-22.37-24.701-0.358-0.11-3.313 2.215-6.566 5.168m-356.55 1.609c-3.599 4.268-4.07 5.298-2.913 6.364 0.759 0.7 6.78 5.929 13.38 11.62 6.6 5.692 11.875 10.745 11.721 11.231-0.153 0.485-8.662 10.571-18.909 22.413l-18.629 21.53 3.908 3.394c2.15 1.866 5.039 4.243 6.42 5.281l2.512 1.887 21.988-25.444c12.094-13.995 22.576-26.278 23.293-27.296 1.34-1.903 1.28-1.959-36.891-34.709-1.386-1.19-2.131-0.717-5.88 3.729m364.75 36.188c-5.852 5.592-7.758 8.1-8.283 10.902-0.89 4.743 1.62 10.125 5.977 12.818 3.825 2.364 6.385 2.52 10.835 0.66 4.018-1.679 15.191-11.333 15.191-13.126 0-1.25-14.379-18.297-15.559-18.447-0.308-0.039-3.98 3.198-8.161 7.193m-77.28 11.901c-13.2 6.632-24.134 12.179-24.298 12.327-0.509 0.462 5.175 11.508 5.922 11.508 0.389 0 6.707-3.022 14.041-6.716s15.027-7.499 17.095-8.456l3.76-1.739 3.49 6.931c1.919 3.811 3.49 7.163 3.49 7.448s-6.413 3.723-14.25 7.639c-7.837 3.915-14.439 7.295-14.67 7.509-0.518 0.482 4.038 10.339 5.075 10.98 0.413 0.255 7.067-2.699 14.785-6.566 7.718-3.866 14.393-7.03 14.832-7.03 0.692 0 7.228 12.22 7.228 13.513 0 0.261-7.312 4.129-16.25 8.594-8.937 4.465-16.439 8.294-16.67 8.509-0.517 0.481 4.037 10.338 5.073 10.978 0.616 0.381 46.308-21.841 47.811-23.253 0.544-0.51-31.194-64.367-31.952-64.287-0.281 0.029-11.312 5.479-24.512 12.111m-236.26-1.633c-2.893 1.462-6.807 4.545-8.698 6.852-2.949 3.6-23.538 43.724-23.54 45.877-1e-3 0.759 12.308 6.739 13.87 6.739 0.451 0 4.748-8.212 9.549-18.25 11.006-23.012 12.574-25.418 18.186-27.9 4.183-1.85 4.784-1.878 9.692-0.452 3.407 0.991 6.447 2.776 8.717 5.119 3.164 3.268 3.482 4.122 3.449 9.291-0.032 5.116-1.019 7.727-9.75 25.813-5.343 11.067-9.714 20.398-9.714 20.737 0 0.704 14.055 7.937 14.488 7.456 0.797-0.883 19.403-40.799 20.377-43.713 2.038-6.103 1.422-15.132-1.422-20.84-5.406-10.848-18.246-18.511-31.943-19.064-7.044-0.285-8.628-6e-3 -13.261 2.335m198.66 17.191-7.601 1.407 1.944 9.569c1.417 6.974 1.637 9.759 0.81 10.27-0.624 0.385-4.119 1.251-7.766 1.923l-6.631 1.221-8.577-8.535-8.577-8.536-8.25 1.707c-4.538 0.939-8.25 2.016-8.25 2.393 0 0.378 4.325 4.746 9.611 9.707l9.612 9.021-3.572 3.677c-5.061 5.211-7.042 10.993-6.421 18.735 1.101 13.708 9.45 21.922 23.732 23.345 4.085 0.407 10.231-0.382 23.424-3.007 9.837-1.957 18.149-3.822 18.471-4.144 0.68-0.679-12.845-69.382-13.751-69.848-0.333-0.171-4.027 0.321-8.208 1.095m-102.38 7.502c-0.238 0.701-1.349 6.408-2.467 12.681s-2.151 11.522-2.294 11.663c-0.144 0.142-7.427-1.05-16.186-2.647s-16.074-2.757-16.254-2.576c-0.62 0.619-2.459 11.849-2.014 12.295 0.245 0.244 7.254 1.703 15.575 3.241 8.322 1.538 15.409 3.076 15.75 3.416 0.656 0.657-1.579 15.999-2.564 17.591-0.341 0.553-7.961-0.414-18.573-2.356-12.457-2.279-18.205-2.96-18.679-2.211-1.002 1.585-2.125 10.702-1.408 11.42 0.692 0.691 51.904 10.279 52.378 9.806 0.167-0.168 2.977-14.872 6.244-32.676 3.267-17.805 6.199-33.572 6.516-35.038 0.554-2.562 0.347-2.711-5.235-3.79-3.196-0.617-6.833-1.341-8.083-1.608-1.325-0.283-2.453 0.046-2.706 0.789m90.795 28.792c-4.5 1.017-9.263 2.557-10.584 3.422-8.436 5.528-5.78 20.336 3.976 22.166 2.934 0.551 20.791-1.772 21.863-2.843 0.156-0.157-0.316-3.204-1.049-6.773s-1.857-9.076-2.499-12.239c-0.649-3.202-1.688-5.713-2.345-5.666-0.648 0.047-4.861 0.916-9.362 1.933" fill="#060606" fill-rule="evenodd"/>
</svg>
